<?xml version="1.0" encoding="UTF-8"?>
<svg xmlns="http://www.w3.org/2000/svg" xmlns:xlink="http://www.w3.org/1999/xlink" width="130px" height="130px" viewBox="0 0 130 130" version="1.1">
<g id="surface1">
<path style=" stroke:none;fill-rule:evenodd;fill:rgb(9.411765%,8.627451%,8.627451%);fill-opacity:1;" d="M 65 5.183594 C 31.132812 5.183594 3.667969 32.640625 3.667969 66.515625 C 3.667969 93.613281 21.242188 116.601562 45.609375 124.710938 C 48.675781 125.28125 49.800781 123.382812 49.800781 121.761719 C 49.800781 120.300781 49.742188 115.46875 49.71875 110.34375 C 32.65625 114.054688 29.054688 103.105469 29.054688 103.105469 C 26.265625 96.019531 22.246094 94.132812 22.246094 94.132812 C 16.679688 90.328125 22.664062 90.40625 22.664062 90.40625 C 28.820312 90.835938 32.066406 96.726562 32.066406 96.726562 C 37.535156 106.101562 46.414062 103.390625 49.914062 101.824219 C 50.464844 97.859375 52.054688 95.152344 53.808594 93.621094 C 40.183594 92.074219 25.863281 86.8125 25.863281 63.3125 C 25.863281 56.617188 28.261719 51.144531 32.183594 46.851562 C 31.546875 45.304688 29.445312 39.066406 32.777344 30.621094 C 32.777344 30.621094 37.925781 28.972656 49.644531 36.90625 C 54.539062 35.546875 59.785156 34.863281 65 34.839844 C 70.210938 34.863281 75.460938 35.542969 80.363281 36.90625 C 92.070312 28.96875 97.210938 30.617188 97.210938 30.617188 C 100.550781 39.066406 98.453125 45.304688 97.816406 46.847656 C 101.746094 51.144531 104.125 56.613281 104.125 63.3125 C 104.125 86.867188 89.777344 92.054688 76.121094 93.574219 C 78.324219 95.476562 80.28125 99.210938 80.28125 104.929688 C 80.28125 113.136719 80.210938 119.742188 80.210938 121.761719 C 80.210938 123.394531 81.316406 125.304688 84.425781 124.703125 C 108.78125 116.585938 126.332031 93.601562 126.332031 66.515625 C 126.332031 32.640625 98.871094 5.183594 65 5.183594 Z M 65 5.183594 "/>
<path style=" stroke:none;fill-rule:nonzero;fill:rgb(9.411765%,8.627451%,8.627451%);fill-opacity:1;" d="M 26.898438 93.242188 C 26.761719 93.546875 26.285156 93.636719 25.847656 93.429688 C 25.398438 93.230469 25.152344 92.8125 25.296875 92.507812 C 25.425781 92.191406 25.90625 92.105469 26.351562 92.316406 C 26.796875 92.515625 27.050781 92.9375 26.898438 93.242188 Z M 29.382812 96.011719 C 29.089844 96.285156 28.519531 96.15625 28.128906 95.726562 C 27.730469 95.300781 27.652344 94.730469 27.949219 94.453125 C 28.253906 94.183594 28.808594 94.3125 29.210938 94.738281 C 29.609375 95.171875 29.691406 95.738281 29.382812 96.011719 Z M 31.800781 99.542969 C 31.425781 99.804688 30.808594 99.5625 30.429688 99.015625 C 30.054688 98.46875 30.054688 97.8125 30.441406 97.554688 C 30.820312 97.289062 31.425781 97.527344 31.8125 98.066406 C 32.183594 98.621094 32.183594 99.277344 31.800781 99.542969 Z M 35.113281 102.957031 C 34.777344 103.328125 34.0625 103.226562 33.535156 102.722656 C 33 102.230469 32.851562 101.523438 33.1875 101.15625 C 33.53125 100.785156 34.25 100.886719 34.777344 101.390625 C 35.3125 101.882812 35.472656 102.585938 35.113281 102.957031 Z M 39.683594 104.9375 C 39.535156 105.417969 38.84375 105.636719 38.148438 105.433594 C 37.457031 105.222656 37.003906 104.660156 37.144531 104.175781 C 37.285156 103.691406 37.980469 103.464844 38.679688 103.683594 C 39.375 103.890625 39.828125 104.449219 39.683594 104.9375 Z M 44.703125 105.304688 C 44.722656 105.8125 44.132812 106.230469 43.402344 106.238281 C 42.667969 106.257812 42.074219 105.847656 42.066406 105.347656 C 42.066406 104.839844 42.644531 104.425781 43.378906 104.410156 C 44.105469 104.398438 44.703125 104.804688 44.703125 105.304688 Z M 49.375 104.511719 C 49.460938 105.003906 48.953125 105.511719 48.230469 105.644531 C 47.519531 105.777344 46.859375 105.46875 46.765625 104.980469 C 46.679688 104.476562 47.195312 103.96875 47.90625 103.839844 C 48.632812 103.714844 49.28125 104.011719 49.375 104.511719 Z M 49.375 104.511719 "/>
</g>
</svg>
